<svg id="svg" version="1.1" xmlns="http://www.w3.org/2000/svg" xmlns:xlink="http://www.w3.org/1999/xlink" width="400" height="400" viewBox="0, 0, 400,400"><g id="svgg"><path id="path0" d="M187.013 1.019 C 165.245 5.681,156.562 34.120,171.894 50.538 C 189.361 69.241,220.099 59.679,223.797 34.392 C 226.831 13.639,207.974 -3.469,187.013 1.019 M189.626 71.146 C 181.968 72.350,176.319 75.523,174.366 79.717 L 173.434 81.718 173.430 167.079 C 173.427 251.563,173.418 252.450,172.635 253.446 C 170.272 256.450,162.846 256.675,160.116 253.825 L 159.061 252.724 158.951 198.790 C 158.828 138.415,159.095 143.510,155.891 140.306 C 146.749 131.164,121.796 133.150,117.149 143.389 C 116.123 145.649,115.915 360.722,116.936 363.795 C 121.229 376.720,153.975 376.765,158.375 363.851 C 158.973 362.096,159.041 358.912,159.041 332.816 L 159.041 303.737 160.340 302.773 C 163.817 300.191,168.976 300.271,172.032 302.954 L 173.413 304.166 173.519 346.988 L 173.626 389.810 174.720 391.671 C 181.498 403.201,211.739 402.022,215.314 390.087 C 215.669 388.904,215.784 365.419,215.784 294.559 L 215.784 200.599 216.618 199.765 C 219.547 196.836,227.360 197.027,229.766 200.085 C 230.563 201.099,230.569 201.603,230.569 262.407 C 230.569 322.833,230.581 323.730,231.365 325.268 C 237.147 336.600,265.053 336.931,271.629 325.745 L 272.727 323.876 272.727 213.586 L 272.727 103.297 271.634 101.436 C 266.045 91.929,243.137 90.290,233.968 98.742 C 230.351 102.076,230.569 100.235,230.569 127.415 L 230.569 151.366 229.214 152.556 C 225.938 155.432,217.876 155.009,216.197 151.873 C 215.922 151.359,215.783 139.580,215.782 116.610 C 215.780 93.061,215.642 81.623,215.346 80.557 C 213.605 74.284,200.402 69.453,189.626 71.146 M134.171 83.130 C 117.155 85.995,110.471 106.810,122.653 118.993 C 135.858 132.198,158.593 122.649,158.635 103.880 C 158.664 91.068,146.799 81.004,134.171 83.130 M248.948 342.456 C 231.672 344.620,224.398 365.930,236.726 378.259 C 246.076 387.608,261.860 386.167,269.077 375.304 C 279.247 359.996,267.105 340.181,248.948 342.456 " stroke="none" fill="#3cc4d4" fill-rule="evenodd"></path><path id="path1" d="M304.120 164.245 C 296.538 165.302,290.617 168.500,288.478 172.693 C 287.251 175.097,287.281 322.862,288.508 325.268 C 294.166 336.358,321.667 336.926,328.543 326.096 L 329.670 324.319 329.670 249.260 C 329.670 165.855,329.919 172.832,326.842 169.847 C 322.401 165.537,312.448 163.083,304.120 164.245 M73.670 176.387 C 66.481 177.761,61.307 180.836,59.489 184.815 C 58.352 187.304,58.352 310.598,59.489 313.087 C 64.672 324.435,93.248 324.904,99.805 313.748 L 100.899 311.888 100.899 248.951 L 100.899 186.014 100.014 184.359 C 96.715 178.190,84.142 174.386,73.670 176.387 " stroke="none" fill="#2c84bc" fill-rule="evenodd"></path><path id="path2" d="" stroke="none" fill="#34c8c8" fill-rule="evenodd"></path><path id="path3" d="" stroke="none" fill="#34c8c8" fill-rule="evenodd"></path><path id="path4" d="" stroke="none" fill="#34c8c8" fill-rule="evenodd"></path></g></svg>